<?xml version="1.0" standalone="no"?>
<!DOCTYPE svg PUBLIC "-//W3C//DTD SVG 20010904//EN"
 "http://www.w3.org/TR/2001/REC-SVG-20010904/DTD/svg10.dtd">
<svg version="1.0" xmlns="http://www.w3.org/2000/svg"
 width="1024.000000pt" height="1024.000000pt" viewBox="0 0 1024.000000 1024.000000"
 preserveAspectRatio="xMidYMid meet">

<g transform="translate(0.000000,1024.000000) scale(0.100000,-0.100000)"
fill="#000000" stroke="none">
<path d="M0 5120 l0 -5120 5120 0 5120 0 0 5120 0 5120 -5120 0 -5120 0 0
-5120z m5749 2848 c32 -68 239 -485 459 -928 220 -443 470 -951 557 -1130 294
-606 355 -730 504 -1033 193 -391 434 -889 598 -1237 25 -52 53 -111 63 -131
l18 -35 -232 -410 -232 -409 -1622 -3 -1622 -2 0 935 0 935 290 0 290 0 0
-480 0 -480 150 0 150 0 0 795 0 795 290 0 290 0 0 -795 0 -795 529 0 529 0
-310 623 c-286 573 -507 1018 -1048 2114 l-203 413 -17 -28 c-9 -15 -85 -162
-169 -327 -150 -294 -263 -513 -454 -885 -52 -102 -157 -306 -234 -455 -77
-148 -217 -421 -311 -605 -94 -184 -231 -450 -305 -590 l-133 -255 193 -5 192
-5 -146 -180 c-81 -99 -240 -294 -354 -433 -115 -138 -214 -261 -222 -272 -14
-20 -24 -20 -680 -18 l-666 3 180 345 c398 761 557 1065 669 1275 65 121 224
423 355 670 131 248 275 520 320 605 46 85 158 299 250 475 92 176 182 347
200 380 18 33 99 184 180 335 82 151 227 419 323 595 97 176 213 390 260 475
46 85 100 183 119 218 l34 62 454 0 455 0 59 -122z"/>
</g>
</svg>
