<?xml version="1.0" standalone="no"?>
<!DOCTYPE svg PUBLIC "-//W3C//DTD SVG 20010904//EN"
 "http://www.w3.org/TR/2001/REC-SVG-20010904/DTD/svg10.dtd">
<svg version="1.0" xmlns="http://www.w3.org/2000/svg"
 width="720.000000pt" height="720.000000pt" viewBox="0 0 720.000000 720.000000"
 preserveAspectRatio="xMidYMid meet">

<g transform="translate(0.000000,720.000000) scale(0.100000,-0.100000)"
fill="#000000" stroke="none">
<path d="M3236 6528 c-13 -24 -64 -117 -114 -208 -49 -91 -153 -282 -232 -425
-78 -143 -237 -435 -352 -650 -285 -529 -276 -512 -451 -845 -182 -347 -410
-780 -530 -1005 -46 -88 -147 -279 -224 -425 -77 -146 -223 -422 -325 -615
-226 -428 -625 -1194 -633 -1215 -5 -13 72 -15 661 -13 l665 3 47 57 c25 32
128 157 227 278 100 121 245 299 324 395 l142 175 -190 3 c-105 1 -191 5 -191
9 0 3 62 126 139 272 132 254 182 350 461 896 68 132 140 272 160 310 20 39
90 174 155 300 65 127 161 316 215 420 54 105 171 334 260 510 90 176 178 346
195 377 l32 58 127 -260 c156 -318 604 -1223 1077 -2177 l354 -713 -527 0
-528 0 0 798 0 797 -290 0 -290 0 0 -797 0 -798 -150 0 -150 0 0 480 0 480
-290 0 -290 0 0 -935 0 -935 1623 0 1622 0 125 223 c68 122 173 307 232 411
l108 188 -54 112 c-335 697 -442 919 -681 1406 -257 522 -378 770 -475 975
-36 75 -300 610 -829 1678 l-222 447 -454 0 -454 0 -25 -42z"/>
</g>
</svg>
